<svg width="221" height="49" viewBox="0 0 221 49" fill="none" xmlns="http://www.w3.org/2000/svg">
<path d="M25.13 46.48C22.47 46.48 20.2533 45.9667 18.48 44.94C16.7067 43.9133 15.6567 42.3267 15.33 40.18V39.76C14.9567 40.2733 14.5133 40.88 14 41.58C13.5333 42.28 13.02 42.8633 12.46 43.33C11.9467 43.8433 11.41 44.1 10.85 44.1C10.7567 44.1 10.4767 44.0533 10.01 43.96C9.59 43.8667 9.17 43.75 8.75 43.61C8.37666 43.47 8.16666 43.3067 8.12 43.12C7.98 42.2333 8.19 40.9733 8.75 39.34C9.35666 37.66 10.1267 35.8167 11.06 33.81C12.04 31.8033 13.0433 29.7967 14.07 27.79C15.1433 25.7833 16.1233 23.9867 17.01 22.4C17.8967 20.7667 18.5267 19.53 18.9 18.69C19.18 18.1767 19.3667 17.7567 19.46 17.43C19.5533 17.0567 19.6 16.7767 19.6 16.59C19.6 16.31 19.5533 16.0767 19.46 15.89C19.5533 15.33 19.88 14.5833 20.44 13.65C21.0467 12.7167 21.7933 11.7833 22.68 10.85C23.5667 9.91666 24.5233 9.14666 25.55 8.53999C26.5767 7.88666 27.5333 7.55999 28.42 7.55999C28.7 7.55999 29.12 7.65332 29.68 7.83999C30.2867 7.97999 30.8467 8.21332 31.36 8.53999C31.92 8.86666 32.27 9.33332 32.41 9.93999C32.4567 10.08 32.48 10.22 32.48 10.36C32.48 10.5 32.4333 10.57 32.34 10.57C32.2467 10.57 32.1067 10.5467 31.92 10.5C31.78 10.4067 31.6633 10.36 31.57 10.36C30.4967 10.36 29.33 10.8733 28.07 11.9C26.81 12.9267 25.5033 14.3033 24.15 16.03C22.8433 17.7567 21.56 19.6467 20.3 21.7C19.04 23.7533 17.8267 25.83 16.66 27.93C15.54 29.9833 14.56 31.8967 13.72 33.67C12.88 35.3967 12.2267 36.7967 11.76 37.87C11.3867 38.8967 11.2 39.62 11.2 40.04C11.2 40.6933 11.4567 41.02 11.97 41.02C12.6233 41.02 13.3233 40.5767 14.07 39.69C14.5833 39.0833 15.05 38.5233 15.47 38.01C15.9367 37.45 16.3333 37.2167 16.66 37.31C17.3133 37.31 17.7567 37.4967 17.99 37.87C18.2233 38.1967 18.3633 38.5933 18.41 39.06C18.4567 39.5267 18.5033 39.9467 18.55 40.32C18.8767 41.7667 19.6233 42.9567 20.79 43.89C22.0033 44.87 23.6833 45.36 25.83 45.36C28.1167 45.36 30.17 44.9867 31.99 44.24C33.81 43.4933 35.2567 42.4667 36.33 41.16C37.4033 39.8067 37.94 38.29 37.94 36.61C37.94 35.4433 37.66 34.23 37.1 32.97C36.54 31.6633 35.6533 30.3567 34.44 29.05C33.4133 27.8367 32.27 26.6933 31.01 25.62C29.75 24.5467 28.6533 23.5667 27.72 22.68C26.8333 21.7467 26.39 20.9533 26.39 20.3C26.39 19.74 26.7633 19.25 27.51 18.83C28.2567 18.3633 28.8633 18.13 29.33 18.13C30.4033 18.13 31.7567 17.92 33.39 17.5C35.07 17.08 36.7967 16.52 38.57 15.82C40.3433 15.0733 41.9533 14.2567 43.4 13.37C44.8933 12.4833 45.99 11.5967 46.69 10.71C47.11 10.1967 47.4367 9.65999 47.67 9.09999C47.95 8.49332 48.09 7.90999 48.09 7.34999C48.09 6.46332 47.6933 5.66999 46.9 4.96999C46.1533 4.22332 44.87 3.68666 43.05 3.35999C42.5367 3.21999 41.93 3.12666 41.23 3.07999C40.53 3.03332 39.7833 3.00999 38.99 3.00999C36.61 3.00999 33.8567 3.24332 30.73 3.70999C27.6033 4.12999 24.43 4.75999 21.21 5.59999C17.99 6.43999 14.98 7.48999 12.18 8.74999C9.38 10.01 7.07 11.48 5.25 13.16C3.47666 14.7933 2.47333 16.6133 2.24 18.62C2.14666 19.7867 2.42666 20.6733 3.08 21.28C3.73333 21.8867 4.50333 22.3533 5.39 22.68C6.27666 22.96 6.97666 23.24 7.49 23.52C7.91 23.7067 8.12 23.8933 8.12 24.08C8.12 24.3133 7.86333 24.43 7.35 24.43C6.79 24.43 6.09 24.29 5.25 24.01C4.41 23.73 3.57 23.31 2.73 22.75C1.93666 22.1433 1.28333 21.42 0.769997 20.58C0.256663 19.74 0.0699967 18.76 0.209997 17.64C0.209997 17.5467 0.186663 17.3833 0.139997 17.15C0.09333 16.87 0.0699967 16.66 0.0699967 16.52C0.209997 15.0267 0.839997 13.6033 1.96 12.25C3.12666 10.8967 4.48 9.65999 6.02 8.53999C7.60666 7.41999 9.07666 6.48666 10.43 5.73999C11.9233 4.94666 13.72 4.22332 15.82 3.56999C17.92 2.86999 20.16 2.26332 22.54 1.74999C24.9667 1.23666 27.4167 0.839989 29.89 0.559989C32.3633 0.233321 34.6733 0.0699874 36.82 0.0699874C39.1067 0.0699874 41.1133 0.256654 42.84 0.629989C45.1733 1.14332 46.97 2.05332 48.23 3.35999C49.49 4.66666 50.12 6.11332 50.12 7.69999C50.0733 9.42666 49.5367 10.9433 48.51 12.25C47.53 13.51 46.2467 14.5833 44.66 15.47C43.0733 16.3567 41.3467 17.1033 39.48 17.71C37.66 18.27 35.8633 18.69 34.09 18.97C32.3167 19.25 30.7767 19.4133 29.47 19.46C31.43 20.6267 33.3667 21.9333 35.28 23.38C37.24 24.78 38.85 26.32 40.11 28C41.4167 29.68 42.07 31.5233 42.07 33.53C42.07 34.65 41.8133 35.8167 41.3 37.03C40.8333 38.1967 40.0633 39.4567 38.99 40.81C37.59 42.5367 35.63 43.9133 33.11 44.94C30.6367 45.9667 27.9767 46.48 25.13 46.48ZM56.0224 30.31C55.1824 30.31 54.7624 30.0767 54.7624 29.61C54.7624 29.2367 55.0191 28.84 55.5324 28.42C56.0924 28 56.6058 27.79 57.0724 27.79C57.5858 27.79 58.4724 27.79 59.7324 27.79C60.9924 27.7433 62.3458 27.72 63.7924 27.72C65.2391 27.6733 66.4291 27.65 67.3624 27.65C68.5291 27.65 69.4624 27.7667 70.1624 28C70.9091 28.1867 71.2824 28.3967 71.2824 28.63C71.2824 28.91 71.0024 29.12 70.4424 29.26C69.8824 29.4 69.2991 29.5167 68.6924 29.61C68.0858 29.6567 67.6658 29.7033 67.4324 29.75C66.3124 29.7967 64.9824 29.8667 63.4424 29.96C61.9491 30.0533 60.5024 30.1467 59.1024 30.24C57.7491 30.2867 56.7224 30.31 56.0224 30.31ZM81.0108 48.02C79.4708 48.02 78.0008 47.7633 76.6008 47.25C75.2008 46.7367 74.0574 45.92 73.1708 44.8C72.2841 43.68 71.8408 42.2567 71.8408 40.53C71.8408 40.11 71.9341 39.7367 72.1208 39.41C72.3541 39.0367 72.5641 38.85 72.7508 38.85C73.1241 38.85 73.3108 39.41 73.3108 40.53C73.3108 42.1167 73.9874 43.3533 75.3408 44.24C76.4141 44.94 77.8608 45.29 79.6808 45.29C81.5008 45.29 83.3908 44.9633 85.3508 44.31C87.3108 43.6567 89.1774 42.7233 90.9508 41.51C93.0508 40.11 95.3841 38.1033 97.9508 35.49C100.564 32.83 103.271 29.9367 106.071 26.81C103.831 26.5767 101.591 26.32 99.3508 26.04C97.1574 25.76 94.9408 25.62 92.7008 25.62C91.2074 25.62 89.7141 25.7833 88.2208 26.11C86.7274 26.39 85.3741 26.95 84.1608 27.79C82.9474 28.63 82.0374 29.8667 81.4308 31.5C81.3841 31.6867 81.3141 31.8967 81.2208 32.13C81.1741 32.3633 81.1508 32.5967 81.1508 32.83C81.1508 33.2967 81.2674 33.7167 81.5008 34.09C81.5941 34.37 81.6408 34.5333 81.6408 34.58C81.6408 35 81.4541 35.21 81.0808 35.21C80.7541 35.21 80.4974 35.0467 80.3108 34.72C79.8441 33.88 79.6108 32.8067 79.6108 31.5C79.6108 29.0267 80.0541 27.1367 80.9408 25.83C81.8741 24.5233 83.1108 23.6367 84.6508 23.17C86.1908 22.7033 87.8474 22.47 89.6208 22.47C90.4141 22.47 91.2308 22.5167 92.0708 22.61C92.9574 22.6567 93.8208 22.7267 94.6608 22.82C96.7141 23.0067 98.8374 23.3333 101.031 23.8C103.224 24.22 105.417 24.6633 107.611 25.13C110.037 22.2833 112.417 19.4133 114.751 16.52C117.131 13.6267 119.347 10.8967 121.401 8.32999C123.454 5.71666 125.204 3.47666 126.651 1.60999C126.697 1.46999 126.791 1.37666 126.931 1.32999C127.024 1.23666 127.094 1.18999 127.141 1.18999C127.654 0.909991 128.307 0.676657 129.101 0.48999C129.894 0.256657 130.431 0.139991 130.711 0.139991C131.177 0.139991 131.411 0.396657 131.411 0.909989C131.411 1.04999 131.294 1.30666 131.061 1.67999C128.727 5.64666 126.721 9.70666 125.041 13.86C123.407 18.0133 121.961 22.2833 120.701 26.67L120.561 27.16C120.841 27.16 121.121 27.1833 121.401 27.23C121.727 27.23 122.007 27.23 122.241 27.23C124.247 27.37 125.951 27.16 127.351 26.6C128.377 26.2267 129.077 25.69 129.451 24.99C129.591 24.8033 129.707 24.71 129.801 24.71C130.034 24.71 130.197 24.85 130.291 25.13C130.384 25.3633 130.361 25.5967 130.221 25.83C129.707 26.7167 128.797 27.37 127.491 27.79C126.744 28.1167 125.881 28.3267 124.901 28.42C123.967 28.5133 122.987 28.5367 121.961 28.49H121.541L120.701 28.42H120.281C119.581 30.9867 119.091 33.6467 118.811 36.4C118.764 36.6333 118.741 36.8667 118.741 37.1C118.741 37.2867 118.741 37.4967 118.741 37.73C118.741 40.39 119.464 41.72 120.911 41.72C121.844 41.72 122.941 41.3 124.201 40.46C125.507 39.62 126.814 38.5933 128.121 37.38C129.474 36.1667 130.687 34.9767 131.761 33.81C132.834 32.5967 133.627 31.64 134.141 30.94C134.234 30.8467 134.374 30.8 134.561 30.8C135.027 30.8 135.167 31.0567 134.981 31.57C134.887 31.71 134.491 32.27 133.791 33.25C133.091 34.1833 132.134 35.3267 130.921 36.68C129.707 37.9867 128.284 39.2933 126.651 40.6C125.344 41.6267 124.037 42.28 122.731 42.56C121.471 42.8867 120.514 43.05 119.861 43.05C118.554 43.05 117.504 42.4667 116.711 41.3C115.964 40.0867 115.591 38.5467 115.591 36.68C115.591 35.3267 115.731 33.9267 116.011 32.48C116.291 31.0333 116.617 29.5867 116.991 28.14C115.637 28 114.261 27.86 112.861 27.72C111.461 27.5333 110.061 27.3467 108.661 27.16C105.861 30.5667 103.061 33.7633 100.261 36.75C97.5074 39.69 94.9174 42.07 92.4908 43.89C90.6708 45.1967 88.7808 46.2 86.8208 46.9C84.9074 47.6467 82.9708 48.02 81.0108 48.02ZM117.271 26.81C118.111 23.5433 119.091 20.2767 120.211 17.01C121.377 13.6967 122.521 10.6867 123.641 7.97999L123.991 7.13999C121.984 9.93999 119.767 12.9267 117.341 16.1C114.961 19.2733 112.534 22.4233 110.061 25.55C111.274 25.7833 112.487 26.0167 113.701 26.25C114.914 26.4367 116.104 26.6233 117.271 26.81ZM137.618 42.91C135.658 42.91 134.282 42.42 133.488 41.44C132.742 40.46 132.368 39.2467 132.368 37.8C132.368 36.4467 132.672 34.7433 133.278 32.69C133.932 30.6367 134.772 28.42 135.798 26.04C136.825 23.66 137.922 21.3033 139.088 18.97C140.302 16.59 141.492 14.42 142.658 12.46C143.872 10.4533 144.922 8.84332 145.808 7.62999C146.695 6.46332 147.652 5.29665 148.678 4.12999C149.705 2.96332 150.848 1.98332 152.108 1.18999C153.368 0.396655 154.792 -1.16825e-05 156.378 -1.16825e-05C157.452 -1.16825e-05 158.362 0.303322 159.108 0.909989C159.902 1.46999 160.298 2.33332 160.298 3.49999C160.298 3.96666 160.205 4.50332 160.018 5.10999C159.878 5.71666 159.622 6.34666 159.248 6.99999C156.402 11.9467 152.995 16.52 149.028 20.72C145.108 24.92 140.955 28.8167 136.568 32.41C136.382 33.11 136.195 33.74 136.008 34.3C135.868 34.86 135.752 35.3033 135.658 35.63C135.612 35.8633 135.588 36.12 135.588 36.4C135.588 36.6333 135.588 36.8667 135.588 37.1C135.588 38.22 135.775 39.2 136.148 40.04C136.522 40.88 137.152 41.3 138.038 41.3C138.878 41.3 139.905 40.9033 141.118 40.11C142.378 39.27 143.638 38.2667 144.898 37.1C146.158 35.8867 147.302 34.72 148.328 33.6C149.355 32.48 150.078 31.6167 150.498 31.01C150.638 30.87 150.778 30.8 150.918 30.8C151.105 30.8 151.245 30.8933 151.338 31.08C151.478 31.2667 151.478 31.5 151.338 31.78C150.872 32.5733 150.125 33.5533 149.098 34.72C148.072 35.8867 146.928 37.0767 145.668 38.29C144.408 39.4567 143.195 40.4833 142.028 41.37C140.582 42.3967 139.112 42.91 137.618 42.91ZM137.548 29.61C139.322 28.3967 141.165 26.8333 143.078 24.92C144.992 22.96 146.858 20.8367 148.678 18.55C150.545 16.2633 152.225 14 153.718 11.76C155.258 9.51999 156.495 7.48999 157.428 5.66999C157.708 5.15666 157.895 4.71332 157.988 4.33999C158.128 3.91999 158.198 3.54666 158.198 3.21999C158.198 2.33332 157.825 1.88999 157.078 1.88999C156.425 1.88999 155.608 2.23999 154.628 2.93999C152.108 4.89999 149.775 7.41999 147.628 10.5C145.482 13.5333 143.568 16.73 141.888 20.09C140.208 23.45 138.762 26.6233 137.548 29.61ZM160.605 17.85C159.998 17.85 159.368 17.8033 158.715 17.71C158.061 17.57 157.735 17.1267 157.735 16.38C157.735 16.24 158.038 15.9133 158.645 15.4C159.298 14.8867 159.951 14.3733 160.605 13.86C161.305 13.3 161.725 12.9733 161.865 12.88C162.658 12.2267 163.148 11.9 163.335 11.9C163.568 11.9 163.568 12.2033 163.335 12.81C163.101 13.4167 162.985 13.9533 162.985 14.42C162.985 14.6533 162.845 15.05 162.565 15.61C162.285 16.17 161.958 16.6833 161.585 17.15C161.211 17.6167 160.885 17.85 160.605 17.85ZM152.975 42.91C152.135 42.91 151.365 42.7233 150.665 42.35C150.011 41.9767 149.521 41.2767 149.195 40.25C149.148 40.11 149.101 39.97 149.055 39.83C149.055 39.69 149.055 39.5267 149.055 39.34C149.055 38.4067 149.265 37.24 149.685 35.84C150.105 34.44 150.618 33.0867 151.225 31.78C150.945 32.1533 150.618 32.62 150.245 33.18C149.871 33.6933 149.335 34.37 148.635 35.21C148.448 35.3967 148.238 35.49 148.005 35.49C147.678 35.49 147.515 35.3033 147.515 34.93C147.515 34.65 147.608 34.4167 147.795 34.23C149.008 32.69 150.081 31.3133 151.015 30.1C151.995 28.8867 152.718 27.86 153.185 27.02C153.185 26.9733 153.161 26.95 153.115 26.95C153.115 26.9033 153.115 26.8567 153.115 26.81C153.115 26.67 153.185 26.46 153.325 26.18C153.698 25.06 154.071 24.1267 154.445 23.38C154.865 22.5867 155.308 22.1433 155.775 22.05C155.868 22.05 155.961 22.05 156.055 22.05C156.148 22.0033 156.241 21.98 156.335 21.98C156.848 21.98 157.315 22.0967 157.735 22.33C158.155 22.5633 158.365 22.9133 158.365 23.38C158.365 23.8 158.201 24.3133 157.875 24.92C157.595 25.5267 157.221 26.2733 156.755 27.16C155.728 29.3067 154.795 31.2667 153.955 33.04C153.161 34.7667 152.718 36.19 152.625 37.31C152.578 37.4967 152.555 37.6833 152.555 37.87C152.555 38.01 152.555 38.1733 152.555 38.36C152.555 40.2267 153.161 41.16 154.375 41.16C155.121 41.16 156.078 40.7633 157.245 39.97C158.411 39.13 159.601 38.1267 160.815 36.96C162.028 35.7467 163.125 34.6033 164.105 33.53C165.131 32.41 165.831 31.57 166.205 31.01C166.345 30.87 166.485 30.8 166.625 30.8C166.811 30.8 166.951 30.87 167.045 31.01C167.185 31.15 167.208 31.3367 167.115 31.57C166.695 32.3633 165.971 33.3667 164.945 34.58C163.965 35.7467 162.845 36.9367 161.585 38.15C160.371 39.3167 159.181 40.32 158.015 41.16C157.408 41.6267 156.638 42.0233 155.705 42.35C154.818 42.7233 153.908 42.91 152.975 42.91ZM184.866 42.91C184.072 42.91 183.326 42.7233 182.626 42.35C181.972 41.9767 181.482 41.2767 181.156 40.25C181.016 39.83 180.946 39.2467 180.946 38.5C180.946 37.4733 181.086 36.33 181.366 35.07C181.646 33.81 181.949 32.7367 182.276 31.85C182.042 31.9433 181.599 32.3633 180.946 33.11C180.339 33.81 179.569 34.6733 178.636 35.7C177.749 36.68 176.746 37.6833 175.626 38.71C174.552 39.69 173.432 40.5067 172.266 41.16C171.099 41.8133 169.956 42.14 168.836 42.14C168.089 42.14 167.296 41.93 166.456 41.51C165.616 41.0433 164.939 40.46 164.426 39.76C163.726 38.8267 163.376 37.87 163.376 36.89C163.376 35.63 163.796 34.3233 164.636 32.97C165.522 31.6167 166.642 30.31 167.996 29.05C169.396 27.7433 170.866 26.5767 172.406 25.55C173.992 24.4767 175.486 23.59 176.886 22.89C178.332 22.1433 179.499 21.6533 180.386 21.42C181.319 21.14 182.369 21 183.536 21C184.189 21 184.866 21.0933 185.566 21.28C186.266 21.42 186.849 21.6767 187.316 22.05C187.689 22.2367 187.992 22.4933 188.226 22.82C188.459 23.1467 188.576 23.4967 188.576 23.87C188.576 24.2433 188.412 24.36 188.086 24.22C187.712 23.66 187.199 23.31 186.546 23.17C185.939 22.9833 185.309 22.89 184.656 22.89C182.789 22.89 180.736 23.4967 178.496 24.71C176.256 25.9233 174.249 27.3467 172.476 28.98C171.916 29.4467 171.146 30.2633 170.166 31.43C169.232 32.55 168.369 33.7867 167.576 35.14C166.782 36.4933 166.386 37.73 166.386 38.85C166.386 39.4567 166.549 39.9933 166.876 40.46C167.062 40.7867 167.366 40.95 167.786 40.95C168.439 40.95 169.302 40.6 170.376 39.9C171.496 39.2 172.639 38.36 173.806 37.38C174.972 36.3533 176.022 35.3733 176.956 34.44C177.936 33.5067 178.636 32.83 179.056 32.41C179.289 32.1767 179.732 31.71 180.386 31.01C181.086 30.2633 181.832 29.47 182.626 28.63C183.419 27.79 184.119 27.0667 184.726 26.46C185.379 25.8533 185.799 25.55 185.986 25.55C186.219 25.55 186.592 25.62 187.106 25.76C187.666 25.8533 188.132 26.0167 188.506 26.25C188.879 26.4833 188.949 26.7867 188.716 27.16C187.502 28.9333 186.522 30.8 185.776 32.76C185.076 34.6733 184.656 36.19 184.516 37.31C184.469 37.4967 184.446 37.6833 184.446 37.87C184.446 38.01 184.446 38.1733 184.446 38.36C184.446 40.2267 185.099 41.16 186.406 41.16C187.106 41.16 188.039 40.74 189.206 39.9C190.372 39.06 191.562 38.0567 192.776 36.89C193.989 35.7233 195.086 34.6033 196.066 33.53C197.092 32.41 197.792 31.57 198.166 31.01C198.306 30.87 198.446 30.8 198.586 30.8C198.772 30.8 198.936 30.8933 199.076 31.08C199.216 31.22 199.216 31.4067 199.076 31.64C198.562 32.48 197.816 33.4833 196.836 34.65C195.856 35.8167 194.759 36.9833 193.546 38.15C192.332 39.3167 191.142 40.32 189.976 41.16C189.369 41.6267 188.599 42.0233 187.666 42.35C186.732 42.7233 185.799 42.91 184.866 42.91ZM197.824 45.71C195.958 45.71 195.024 45.1967 195.024 44.17C195.024 43.4233 195.421 42.6533 196.214 41.86C196.821 41.2533 197.498 40.7633 198.244 40.39C198.991 40.0167 199.458 39.83 199.644 39.83C199.878 39.83 199.994 39.9233 199.994 40.11C200.041 40.2967 199.948 40.4367 199.714 40.53C199.248 40.81 198.711 41.2067 198.104 41.72C197.544 42.1867 197.264 42.7 197.264 43.26C197.264 44.0067 197.708 44.38 198.594 44.38C199.668 44.38 200.788 44.0533 201.954 43.4C203.121 42.7933 204.194 42 205.174 41.02C206.201 40.04 207.018 39.06 207.624 38.08C208.278 37.0533 208.604 36.1667 208.604 35.42C208.604 34.8133 208.394 34.2533 207.974 33.74C207.554 33.2267 206.691 32.62 205.384 31.92C204.498 31.4067 203.634 30.87 202.794 30.31C202.001 29.75 201.394 29.0733 200.974 28.28C200.601 28.9333 200.111 29.7267 199.504 30.66C198.944 31.5467 198.268 32.48 197.474 33.46C197.194 33.74 196.914 33.88 196.634 33.88C196.354 33.88 196.214 33.7633 196.214 33.53C196.214 33.39 196.331 33.1567 196.564 32.83C197.824 31.3367 198.758 29.96 199.364 28.7C199.971 27.44 200.391 26.4833 200.624 25.83C200.811 24.4767 201.441 23.1933 202.514 21.98C203.588 20.7667 204.894 19.7167 206.434 18.83C207.974 17.8967 209.538 17.1733 211.124 16.66C212.758 16.1467 214.204 15.89 215.464 15.89C216.724 15.89 217.844 16.1233 218.824 16.59C219.804 17.0567 220.294 17.8033 220.294 18.83C220.294 19.39 220.131 19.9967 219.804 20.65C219.384 21.5367 218.684 22.33 217.704 23.03C217.658 23.0767 217.588 23.1 217.494 23.1C217.121 23.1 216.934 22.9367 216.934 22.61C216.934 22.3767 217.051 22.1433 217.284 21.91C217.658 21.5833 217.961 21.1867 218.194 20.72C218.428 20.2533 218.544 19.81 218.544 19.39C218.544 18.55 218.054 18.13 217.074 18.13C216.048 18.13 214.694 18.41 213.014 18.97C211.381 19.53 209.864 20.2533 208.464 21.14C206.878 22.1667 205.548 23.2867 204.474 24.5C203.401 25.7133 202.864 26.7867 202.864 27.72C202.864 28.1867 203.004 28.63 203.284 29.05C203.611 29.4233 204.218 29.8667 205.104 30.38C205.571 30.66 206.224 31.0333 207.064 31.5C207.904 31.92 208.628 32.3167 209.234 32.69C211.148 33.8567 212.104 35.0933 212.104 36.4C212.104 37.4733 211.638 38.57 210.704 39.69C209.771 40.7633 208.558 41.7433 207.064 42.63C205.618 43.5633 204.078 44.31 202.444 44.87C200.811 45.43 199.271 45.71 197.824 45.71Z" fill="black"/>
</svg>